<?xml version="1.0" standalone="no"?>
<!DOCTYPE svg PUBLIC "-//W3C//DTD SVG 20010904//EN"
 "http://www.w3.org/TR/2001/REC-SVG-20010904/DTD/svg10.dtd">
<svg version="1.0" xmlns="http://www.w3.org/2000/svg"
 width="704.000000pt" height="704.000000pt" viewBox="0 0 704.000000 704.000000"
 preserveAspectRatio="xMidYMid meet">
<metadata>
Created by potrace 1.14, written by Peter Selinger 2001-2017
</metadata>
<g transform="translate(0.000000,704.000000) scale(0.100000,-0.100000)"
fill="#000000" stroke="none">
<path d="M545 6389 c-47 -11 -70 -17 -70 -19 0 -1 -7 -3 -16 -5 -26 -5 -121
-69 -158 -106 -35 -35 -102 -133 -105 -153 -1 -6 -4 -15 -7 -21 -13 -22 -33
-146 -30 -182 1 -7 1 -21 1 -30 0 -10 0 -31 1 -48 0 -16 0 -45 0 -62 0 -18 -1
-44 -1 -58 0 -42 0 -58 -1 -122 0 -34 2 -67 6 -73 3 -5 2 -10 -4 -10 -6 0 -6
-11 -1 -30 5 -17 5 -32 0 -35 -5 -3 -6 -15 0 -29 4 -12 4 -29 0 -36 -5 -8 -6
-18 -3 -24 3 -5 5 -32 4 -60 -1 -28 -1 -60 -1 -71 1 -11 1 -26 1 -32 0 -7 -1
-38 -1 -68 0 -30 0 -62 0 -70 0 -8 0 -23 0 -32 0 -10 0 -27 0 -38 -1 -11 -1
-26 -1 -32 1 -7 1 -21 1 -30 0 -10 0 -31 1 -48 0 -16 0 -45 0 -62 0 -18 -1
-44 -1 -58 0 -42 0 -58 -1 -122 0 -34 2 -67 6 -73 3 -5 2 -10 -4 -10 -6 0 -6
-11 -1 -30 5 -17 5 -32 0 -35 -5 -3 -6 -15 0 -29 4 -12 4 -29 0 -36 -5 -8 -6
-18 -3 -24 3 -5 5 -32 4 -60 -1 -28 -1 -60 -1 -71 1 -11 1 -26 1 -32 0 -7 -1
-38 -1 -68 0 -30 0 -62 0 -70 0 -8 0 -23 0 -32 0 -10 0 -27 0 -38 -1 -11 -1
-26 -1 -32 1 -7 1 -21 1 -30 0 -10 0 -31 1 -48 0 -16 0 -45 0 -62 0 -18 -1
-44 -1 -58 0 -42 0 -58 -1 -122 0 -34 2 -67 6 -73 3 -5 2 -10 -4 -10 -6 0 -6
-11 -1 -30 5 -17 5 -32 0 -35 -5 -3 -6 -15 0 -29 4 -12 4 -29 0 -36 -5 -8 -6
-18 -3 -24 3 -5 5 -32 4 -60 -1 -28 -1 -60 -1 -71 1 -11 1 -26 1 -32 0 -7 -1
-38 -1 -68 0 -30 0 -62 0 -70 0 -8 0 -23 0 -32 0 -10 0 -27 0 -38 -1 -11 -1
-26 -1 -32 1 -7 1 -21 1 -30 0 -10 0 -31 1 -48 0 -16 0 -45 0 -62 0 -18 -1
-44 -1 -58 0 -42 0 -58 -1 -122 0 -34 2 -67 6 -73 3 -5 2 -10 -4 -10 -6 0 -6
-11 -1 -30 5 -17 5 -32 0 -35 -5 -3 -6 -15 0 -29 4 -12 4 -29 0 -36 -5 -8 -6
-18 -3 -24 3 -5 5 -32 4 -60 -1 -28 -1 -60 -1 -71 1 -11 1 -26 1 -32 0 -7 -1
-38 -1 -68 0 -30 0 -62 0 -70 0 -8 0 -23 0 -32 0 -10 0 -27 0 -38 -1 -11 -1
-26 -1 -32 1 -7 1 -21 1 -30 0 -10 0 -31 1 -48 0 -16 0 -45 0 -62 0 -18 -1
-44 -1 -58 0 -42 0 -58 -1 -122 0 -34 2 -67 6 -73 3 -5 2 -10 -4 -10 -6 0 -6
-11 -1 -30 5 -17 5 -32 0 -35 -5 -3 -6 -15 0 -29 4 -12 4 -29 0 -36 -5 -8 -6
-18 -3 -24 3 -5 5 -32 4 -60 -1 -28 -1 -60 -1 -71 1 -11 1 -26 1 -32 0 -7 -1
-38 -1 -68 0 -64 0 -80 -1 -97 -2 -43 11 -161 22 -199 18 -61 69 -146 119
-196 45 -46 137 -105 185 -118 17 -4 37 -11 45 -14 29 -11 5913 -12 5960 -1
66 15 72 17 111 34 42 18 120 76 155 114 34 38 93 138 98 167 3 14 7 29 10 34
13 21 23 192 12 209 -3 6 -2 13 3 17 7 3 7 15 1 30 -6 15 -6 27 0 30 5 3 6 15
0 29 -4 12 -4 29 0 36 5 8 6 18 3 24 -3 5 -5 32 -4 60 1 28 1 60 1 71 -1 11
-1 26 -1 33 0 6 1 37 1 67 0 30 0 62 0 70 0 8 0 23 0 33 0 9 0 26 0 37 1 11 1
26 1 33 -1 6 -1 20 -1 30 0 9 0 31 -1 47 0 34 0 35 0 95 0 25 1 54 1 65 1 11
1 26 1 33 -1 6 -1 19 -1 27 0 8 0 22 0 30 0 8 0 22 0 30 0 8 0 22 0 30 0 8 0
21 -1 28 -1 15 0 114 1 142 1 11 1 26 1 33 -1 6 -1 19 -1 27 0 8 0 22 0 30 0
8 0 22 0 30 0 8 0 23 0 33 0 9 0 37 1 62 1 25 1 51 0 58 0 6 -1 19 -1 27 0 8
0 23 0 33 0 9 0 26 0 37 1 11 1 26 1 33 -1 6 -1 20 -1 30 0 9 0 31 -1 47 0 17
0 45 0 63 0 17 1 43 1 57 0 42 0 58 1 122 0 34 -2 67 -6 73 -3 5 -2 10 4 10 6
0 6 11 1 30 -5 17 -5 32 0 35 5 3 6 15 0 29 -4 12 -4 29 0 36 5 8 6 18 3 24
-3 5 -5 32 -4 60 1 28 1 60 1 71 -1 11 -1 26 -1 33 0 6 1 37 1 67 0 30 0 62 0
70 0 8 0 23 0 33 0 9 0 26 0 37 1 11 1 26 1 33 -1 6 -1 20 -1 30 0 9 0 31 -1
47 0 34 0 35 0 95 0 25 1 54 1 65 1 11 1 26 1 33 -1 6 -1 19 -1 27 0 8 0 22 0
30 0 8 0 22 0 30 0 8 0 22 0 30 0 8 0 21 -1 28 -1 15 0 114 1 142 1 11 1 26 1
33 -1 6 -1 19 -1 27 0 8 0 22 0 30 0 8 0 22 0 30 0 8 0 22 0 30 0 8 0 21 -1
28 -1 15 0 114 1 142 1 11 1 26 1 33 -1 6 -1 19 -1 27 0 8 0 22 0 30 0 8 0 22
0 30 0 8 0 22 0 30 0 8 0 21 -1 28 -1 15 0 114 1 142 1 11 1 26 1 33 -1 6 -1
19 -1 27 0 8 0 22 0 30 0 8 0 22 0 30 0 8 0 23 0 33 0 9 0 37 1 62 1 25 1 51
0 58 0 6 -1 19 -1 27 0 8 0 23 0 33 0 9 0 26 0 37 1 11 1 26 1 33 -1 6 -1 20
-1 30 0 9 0 31 -1 47 0 17 0 45 0 63 0 17 1 43 1 57 0 42 0 58 1 122 0 34 -2
67 -6 73 -3 5 -2 10 4 10 6 0 6 11 1 30 -5 17 -5 32 0 35 5 3 6 15 0 29 -4 12
-4 29 0 36 5 8 7 18 4 22 -3 4 -7 43 -9 85 -2 43 -5 85 -7 93 -38 153 -145
275 -293 336 l-70 29 -2960 1 c-1710 1 -2977 -2 -3000 -7z m191 -469 c11 5 27
4 34 0 7 -5 23 -5 35 0 12 5 28 4 35 0 8 -5 21 -5 31 0 9 5 19 7 22 3 5 -5 38
-5 130 -2 6 0 21 0 32 -1 11 0 43 0 71 1 28 1 55 -1 60 -4 6 -3 16 -2 23 3 8
4 27 4 42 0 16 -5 29 -5 29 0 0 5 13 5 30 0 19 -5 30 -5 30 1 0 6 5 7 10 4 6
-4 39 -6 73 -6 64 1 80 1 122 1 14 0 40 1 58 1 17 0 46 0 62 0 17 -1 38 -1 48
-1 9 0 23 0 30 -1 6 0 21 0 32 1 11 0 28 0 38 0 9 0 25 0 35 0 9 0 40 0 69 -1
28 -1 56 2 62 5 5 4 12 2 15 -3 3 -5 21 -6 41 -1 43 10 44 7 44 -126 0 -55 1
-105 2 -110 1 -5 0 -13 -1 -19 -1 -5 -1 -39 0 -75 1 -77 1 -73 0 -153 -1 -35
0 -67 1 -73 1 -5 0 -13 -1 -19 -1 -8 -1 -82 1 -150 1 -5 1 -57 0 -115 0 -58 0
-112 0 -120 0 -8 0 -58 -1 -110 -1 -52 0 -99 1 -105 1 -5 1 -14 0 -19 -1 -5
-2 -50 -1 -100 1 -143 -1 -199 -6 -207 -2 -4 -1 -10 4 -13 4 -2 5 -34 2 -71
-3 -37 -2 -69 2 -71 5 -3 6 -10 2 -15 -3 -5 -5 -62 -4 -127 0 -64 1 -124 1
-132 -2 -167 -2 -218 0 -226 1 -5 0 -13 -1 -19 -1 -5 -1 -39 0 -75 1 -77 1
-73 0 -153 -1 -35 0 -67 1 -73 1 -5 0 -13 -1 -19 -1 -8 -1 -82 1 -150 1 -5 1
-57 0 -115 0 -58 0 -112 0 -120 0 -8 0 -58 -1 -110 -1 -52 0 -99 1 -105 1 -5
1 -14 0 -19 -1 -5 -2 -50 -1 -100 1 -143 -1 -199 -6 -207 -2 -4 -1 -10 4 -13
4 -2 5 -34 2 -71 -3 -37 -2 -69 2 -71 5 -3 6 -10 2 -15 -3 -5 -5 -62 -4 -127
0 -64 1 -124 1 -132 -2 -117 0 -204 5 -211 3 -5 2 -9 -3 -9 -4 0 -7 -44 -5
-97 3 -124 2 -205 -4 -214 -2 -4 -1 -10 4 -13 4 -2 5 -34 2 -71 -3 -37 -3 -68
1 -70 3 -3 3 -21 0 -42 -4 -21 -4 -59 -1 -85 4 -27 4 -48 0 -48 -3 0 -4 -16
-2 -35 5 -46 -11 -67 -43 -55 -14 5 -27 5 -29 1 -3 -5 -20 -5 -38 -2 -18 4
-47 4 -64 0 -18 -3 -38 -3 -45 2 -7 4 -20 4 -29 -1 -9 -5 -22 -5 -30 0 -8 5
-21 5 -30 0 -9 -5 -22 -5 -30 0 -7 4 -23 5 -34 1 -12 -4 -34 -5 -51 -1 -16 3
-47 3 -67 -1 -20 -3 -42 -3 -49 2 -7 4 -20 4 -29 -1 -9 -5 -22 -5 -30 0 -8 5
-21 5 -30 0 -9 -5 -22 -5 -30 0 -7 4 -23 4 -36 0 -12 -5 -24 -7 -27 -4 -4 4
-78 6 -137 3 -8 0 -24 0 -35 1 -11 0 -43 0 -71 -1 -28 -1 -55 1 -60 4 -6 3
-16 2 -23 -3 -8 -4 -27 -4 -42 0 -16 5 -29 5 -29 0 0 -5 -13 -5 -30 0 -19 5
-30 5 -30 -1 0 -6 -5 -7 -11 -4 -13 9 -134 9 -147 1 -6 -3 -13 -2 -16 3 -3 5
-21 6 -41 1 -29 -7 -35 -5 -41 12 -8 25 -8 194 0 207 4 5 2 12 -3 15 -5 3 -5
21 -1 41 4 19 4 37 0 40 -4 3 -4 21 0 40 4 19 4 37 0 40 -4 3 -4 21 0 40 4 19
4 37 0 40 -4 3 -4 21 0 40 4 19 4 37 0 40 -4 3 -4 21 0 40 4 19 4 37 0 40 -4
3 -4 21 0 40 4 20 4 38 -1 41 -5 3 -6 10 -3 16 8 13 8 144 -1 158 -3 5 -3 10
2 10 8 0 7 104 -1 127 -3 7 -2 15 3 17 4 3 5 26 1 51 -4 25 -4 45 -1 45 7 0 4
108 -3 127 -3 7 -1 15 5 18 5 4 7 11 4 16 -5 7 -6 75 -3 152 0 6 0 26 -1 42
-1 17 -1 39 -1 50 1 21 1 128 1 155 0 8 0 38 0 65 0 28 0 56 0 63 -1 6 -1 18
-2 25 0 6 1 37 1 67 1 30 1 60 0 65 -4 24 0 146 5 155 3 5 1 11 -4 14 -5 3 -5
21 -1 41 4 19 4 37 0 40 -4 3 -4 21 0 40 4 19 4 37 0 40 -4 3 -4 21 0 40 4 19
4 37 0 40 -4 3 -4 21 0 40 4 19 4 37 0 40 -4 3 -4 21 0 40 4 19 4 37 0 40 -4
3 -4 21 0 40 4 19 4 37 0 40 -4 3 -5 20 -1 37 4 18 6 44 4 58 -4 44 -4 162 1
167 2 2 0 18 -4 34 -5 16 -5 31 -1 34 4 2 5 24 2 47 -3 24 -4 63 -1 88 3 25 2
57 -2 72 -3 15 -3 30 1 33 4 2 5 24 2 47 -3 24 -4 63 -1 88 3 25 2 57 -2 72
-3 15 -3 30 1 33 4 2 5 24 2 47 -3 24 -4 63 -1 88 3 25 2 57 -2 72 -3 15 -2
30 3 34 5 3 7 10 4 15 -8 12 -8 345 -1 358 4 5 2 12 -3 15 -5 3 -5 21 -1 41 4
19 4 37 0 40 -4 3 -4 21 0 40 4 19 4 37 0 40 -4 3 -4 21 0 40 4 19 4 37 0 40
-4 3 -4 21 0 40 4 19 4 37 0 40 -4 3 -4 21 0 40 4 19 4 37 0 40 -4 3 -4 21 0
40 4 20 4 38 -1 41 -5 3 -6 10 -3 16 8 13 8 144 -1 157 -3 5 -1 12 4 15 5 3 7
15 4 27 -7 27 12 39 46 29 14 -4 36 -4 47 0z m1903 0 c16 4 34 4 42 0 7 -5 20
-5 29 0 9 5 22 5 30 0 7 -4 23 -5 34 -1 12 4 35 5 51 1 17 -3 47 -3 67 1 20 3
42 3 49 -2 7 -4 20 -4 29 1 9 5 22 5 30 0 8 -5 21 -5 30 0 9 5 22 5 30 0 7 -4
23 -5 34 -1 12 4 35 5 51 1 17 -3 47 -3 67 1 20 3 42 3 49 -2 7 -4 20 -4 29 1
9 5 22 5 30 0 8 -5 21 -5 30 0 9 5 22 5 30 0 7 -4 23 -5 34 -1 12 4 35 5 51 1
17 -3 47 -3 67 1 20 3 42 3 49 -2 7 -4 20 -4 29 1 9 5 22 5 30 0 8 -5 21 -5
30 0 9 5 22 5 30 0 7 -4 23 -4 36 0 12 5 24 7 27 4 4 -4 78 -6 137 -3 8 0 24
0 35 -1 11 0 43 0 71 1 28 1 55 -1 60 -4 6 -3 16 -2 23 3 8 4 27 4 42 0 16 -5
29 -5 29 0 0 5 13 5 30 0 19 -5 30 -5 30 1 0 6 5 7 10 4 6 -4 39 -6 73 -6 64
1 80 1 122 1 14 0 40 1 58 1 17 0 46 0 62 0 17 -1 38 -1 48 -1 9 0 23 0 30 -1
6 0 21 0 32 1 11 0 28 0 38 0 9 0 24 0 32 0 8 0 40 0 70 0 30 0 61 1 68 1 6 0
21 0 32 -1 11 0 43 0 71 1 28 1 55 -1 60 -4 6 -3 16 -2 23 3 8 4 27 4 42 0 16
-5 29 -5 29 0 0 5 13 5 30 0 19 -5 30 -5 30 1 0 6 5 7 10 4 6 -4 39 -6 73 -6
64 1 80 1 122 1 14 0 40 1 58 1 17 0 46 0 62 0 17 -1 38 -1 48 -1 9 0 23 0 30
-1 6 0 21 0 32 1 11 0 28 0 38 0 9 0 24 0 32 0 8 0 40 0 70 0 30 0 61 1 68 1
6 0 21 0 32 -1 11 0 43 0 71 1 28 1 55 -1 60 -4 6 -3 16 -2 23 3 8 4 27 4 42
0 16 -5 29 -5 29 0 0 5 13 5 30 0 19 -5 30 -5 30 1 0 6 5 7 10 4 9 -5 84 -7
150 -4 8 0 26 0 40 -2 14 -1 32 0 40 2 9 3 15 -5 17 -21 4 -42 4 -142 0 -147
-3 -2 -1 -20 3 -39 4 -19 5 -36 0 -39 -4 -2 -4 -25 0 -50 4 -25 4 -45 1 -45
-7 0 -4 -108 3 -127 3 -7 2 -15 -3 -17 -4 -3 -5 -26 -1 -51 4 -25 4 -45 1 -45
-7 0 -4 -108 3 -127 3 -7 2 -15 -3 -17 -4 -3 -5 -26 -1 -51 4 -25 4 -45 1 -45
-7 0 -4 -108 3 -127 3 -7 2 -15 -3 -17 -4 -3 -5 -26 -1 -51 4 -25 4 -45 1 -45
-7 0 -4 -108 3 -127 3 -7 2 -15 -3 -17 -4 -3 -5 -26 -1 -51 4 -25 4 -45 1 -45
-7 0 -4 -107 3 -126 3 -7 2 -15 -1 -18 -4 -3 -5 -36 -4 -74 1 -37 2 -73 2 -79
-1 -22 -2 -46 -2 -108 0 -33 0 -64 -1 -70 0 -5 0 -23 1 -40 1 -16 1 -39 1 -50
-1 -11 -1 -47 -1 -80 0 -33 0 -64 -1 -70 0 -5 0 -23 1 -40 1 -16 1 -39 1 -50
-1 -11 -1 -47 -1 -80 0 -33 0 -64 -1 -70 0 -5 0 -23 1 -40 1 -16 1 -39 1 -50
-1 -11 -1 -47 -1 -80 0 -33 0 -64 -1 -70 0 -5 0 -23 1 -40 1 -16 1 -39 1 -50
-1 -11 0 -46 0 -79 1 -32 -1 -60 -3 -63 -3 -2 -1 -20 3 -39 4 -19 5 -36 0 -39
-4 -2 -4 -25 0 -50 4 -25 4 -45 1 -45 -7 0 -4 -108 3 -127 3 -7 2 -15 -3 -17
-4 -3 -5 -26 -1 -51 4 -25 4 -45 1 -45 -7 0 -4 -108 3 -127 3 -7 2 -15 -3 -17
-4 -3 -5 -26 -1 -51 4 -25 4 -45 1 -45 -7 0 -4 -108 3 -127 3 -7 2 -15 -3 -17
-4 -3 -5 -26 -1 -51 4 -25 4 -45 1 -45 -7 0 -4 -108 3 -127 3 -7 2 -15 -3 -17
-4 -3 -5 -26 -1 -51 4 -25 4 -45 1 -45 -7 0 -4 -108 3 -127 3 -7 2 -15 -3 -17
-4 -3 -5 -26 -1 -51 4 -25 4 -45 1 -45 -7 0 -4 -108 3 -127 3 -7 2 -15 -3 -17
-4 -3 -5 -26 -1 -51 4 -24 5 -47 2 -50 -3 -3 -4 -31 -3 -62 1 -32 2 -65 2 -73
-1 -8 -1 -31 0 -50 0 -19 0 -39 0 -45 0 -9 -1 -71 -1 -140 0 -84 0 -85 -23
-85 -12 0 -29 0 -37 0 -8 -1 -24 -1 -35 0 -11 0 -43 0 -71 -1 -28 -1 -55 1
-60 4 -6 3 -16 2 -23 -3 -8 -4 -27 -4 -42 0 -16 5 -29 5 -29 0 0 -5 -13 -5
-30 0 -19 5 -30 5 -30 -1 0 -6 -5 -7 -10 -4 -9 5 -67 7 -150 4 -8 0 -24 0 -35
1 -27 1 -87 1 -102 1 -7 -1 -19 -1 -25 -2 -7 0 -22 0 -33 1 -11 0 -43 0 -71
-1 -28 -1 -55 1 -60 4 -6 3 -16 2 -23 -3 -8 -4 -27 -4 -42 0 -16 5 -29 5 -29
0 0 -5 -13 -5 -30 0 -19 5 -30 5 -30 -1 0 -6 -5 -7 -10 -4 -9 5 -67 7 -150 4
-8 0 -24 0 -35 1 -27 1 -87 1 -102 1 -7 -1 -19 -1 -25 -2 -7 0 -22 0 -33 1
-11 0 -43 0 -71 -1 -28 -1 -55 1 -60 4 -6 3 -16 2 -23 -3 -8 -4 -27 -4 -42 0
-16 5 -29 5 -29 0 0 -5 -13 -5 -30 0 -19 5 -30 5 -30 -1 0 -6 -5 -7 -10 -4 -9
5 -67 7 -150 4 -8 0 -24 0 -35 1 -27 1 -87 1 -102 1 -7 -1 -19 -1 -25 -2 -7 0
-22 0 -33 1 -11 0 -43 0 -71 -1 -28 -1 -55 1 -60 4 -6 3 -16 2 -23 -3 -8 -4
-27 -4 -42 0 -16 5 -29 5 -29 0 0 -5 -13 -5 -30 0 -19 5 -30 5 -30 -1 0 -6 -5
-7 -10 -4 -9 5 -67 7 -150 4 -8 0 -24 0 -35 1 -11 0 -44 0 -73 -1 -29 -1 -55
1 -58 4 -4 3 -14 2 -23 -3 -10 -5 -23 -5 -31 0 -8 5 -21 5 -30 0 -9 -5 -22 -5
-30 0 -7 4 -23 5 -34 1 -12 -4 -34 -5 -51 -1 -16 3 -47 3 -67 -1 -20 -3 -42
-3 -49 2 -7 4 -20 4 -29 -1 -9 -5 -22 -5 -30 0 -8 5 -21 5 -30 0 -9 -5 -22 -5
-30 0 -7 4 -23 5 -34 1 -12 -4 -34 -5 -51 -1 -16 3 -41 3 -55 0 -14 -4 -36 -4
-50 0 -14 4 -34 3 -46 -1 -11 -4 -27 -4 -34 1 -7 5 -24 4 -36 0 -14 -6 -26 -5
-29 0 -3 6 -15 6 -29 0 -13 -5 -26 -6 -29 -3 -8 7 -127 9 -127 2 0 -4 -16 -3
-35 1 -19 4 -37 4 -40 0 -3 -5 -15 -7 -28 -4 -23 4 -28 4 -134 4 -24 0 -39 15
-24 24 5 3 5 21 1 41 -4 19 -4 35 0 35 4 0 4 17 0 38 -3 20 -3 49 1 63 3 15 3
32 -1 39 -4 7 -4 25 0 40 4 15 4 33 0 40 -4 7 -4 25 0 40 4 15 4 33 0 40 -4 7
-4 25 0 40 4 15 4 33 0 40 -4 7 -4 25 0 40 4 15 4 33 0 40 -4 7 -4 25 0 40 4
15 4 33 0 40 -4 7 -4 25 0 40 4 15 4 33 0 40 -5 7 -6 19 -3 27 9 22 9 143 0
143 -5 0 -5 4 -2 10 8 13 11 103 3 115 -3 6 -2 19 2 30 4 11 4 32 -1 48 -4 15
-4 27 0 27 5 0 5 15 2 33 -4 17 -4 47 0 65 4 17 3 34 -2 37 -4 3 -4 16 0 28 5
12 5 34 0 49 -4 16 -4 28 0 28 5 0 5 15 2 33 -4 17 -4 47 0 65 4 17 3 34 -2
37 -4 3 -4 16 0 28 5 12 5 34 0 49 -4 16 -4 28 0 28 5 0 5 15 2 33 -4 17 -4
47 0 65 4 17 3 34 -2 37 -4 3 -4 16 0 28 5 12 5 34 0 49 -4 16 -4 28 0 28 5 0
5 15 2 33 -4 17 -4 47 0 65 4 17 3 34 -2 37 -4 3 -4 16 0 28 5 12 5 34 0 49
-4 16 -4 28 0 28 5 0 5 15 2 33 -4 17 -4 47 0 65 4 17 3 34 -2 37 -4 3 -4 16
0 28 5 12 5 34 0 49 -4 16 -4 28 0 28 5 0 5 15 2 33 -4 17 -4 47 0 65 4 17 3
34 -2 37 -4 3 -4 16 0 28 5 12 5 34 0 49 -4 16 -4 28 0 28 5 0 5 15 2 33 -4
17 -4 47 0 65 4 17 3 34 -2 37 -4 3 -4 16 0 28 5 12 5 34 0 49 -4 16 -4 28 0
28 5 0 5 15 2 33 -4 17 -4 47 0 65 4 17 3 34 -2 37 -4 3 -4 16 0 28 5 12 5 34
0 49 -4 16 -4 28 0 28 5 0 5 15 2 33 -4 17 -4 47 0 65 4 17 3 34 -2 37 -4 3
-5 16 0 28 4 12 5 33 1 47 -4 14 -3 34 1 46 4 11 4 27 -1 34 -5 7 -5 23 0 34
4 12 4 30 0 41 -4 11 -5 24 -2 29 8 14 8 76 0 76 -4 0 -3 13 2 30 5 17 5 32 0
35 -5 3 -6 16 -1 28 5 12 5 31 1 42 -4 11 -5 24 -2 29 8 14 8 76 0 76 -4 0 -3
13 2 30 5 17 5 32 0 35 -5 3 -6 16 -1 28 5 12 5 31 1 42 -4 11 -5 24 -2 29 8
14 8 76 0 76 -4 0 -3 13 2 30 5 17 5 32 0 35 -5 3 -6 16 -1 28 5 12 5 31 1 42
-4 11 -5 24 -2 29 8 14 8 76 0 76 -4 0 -3 13 2 30 5 17 5 32 0 35 -5 3 -6 16
-1 28 5 12 5 31 1 42 -4 11 -5 24 -2 29 8 14 8 76 0 76 -4 0 -3 13 2 30 5 17
5 32 0 35 -5 3 -6 16 -1 28 5 12 5 31 1 42 -4 11 -5 24 -2 29 7 12 9 76 2 76
-3 0 -4 19 -4 42 1 36 5 44 25 48 13 4 25 3 27 -1 2 -4 16 -4 31 1z"/>
</g>
</svg>
